# xmcd
#
# Track frame offsets:
#	150
#	16200
#	33700
#	53585
#	72730
#	91227
#	108130
#	126282
#	142252
#	160150
#	175060
#	196215
#	215047
#	233350
#	252762
#	264945
#	282732
#
# Disc length: 3989 seconds
#
# Revision: 3
# Processed by: cddbd v1.5.1PL0 Copyright (c) Steve Scherf et al.
# Submitted via: dBpowerAMP V4.0
#
DISCID=f40f9311
DTITLE=Various Artist - New Country 6
DYEAR=1999
DGENRE=Country
TTITLE0=Terri Clark - You're Easy On The Eyes
TTITLE1=Wilkinsons - 26c
TTITLE2=Faith Hill - Let Me Let Go
TTITLE3=Paul Brandt - Yeah
TTITLE4=Mark Chesnutt - I Don't Want To Miss A Thing
TTITLE5=Dwight Yoakam - Things To Change
TTITLE6=Mark Wills - Wish You Were Here
TTITLE7=Lila McCann - With You
TTITLE8=Chad Brock - Ordinary Life
TTITLE9=Billy Ray Cyrus - Busy Man
TTITLE10=Jamie Warren - She'll Find Someone To Love Her
TTITLE11=John Michael Montgomery - Hold On To Me
TTITLE12=Shirley Myers - You Better Be Sure
TTITLE13=George Fox - How Do I Get There From Her
TTITLE14=Clay Walker - You're Beginning To Get To Me
TTITLE15=Beverly Mahood - The Way A Woman Feels
TTITLE16=Chris Cummings - Minute And A Half
EXTD=
EXTT0=
EXTT1=
EXTT2=
EXTT3=
EXTT4=
EXTT5=
EXTT6=
EXTT7=
EXTT8=
EXTT9=
EXTT10=
EXTT11=
EXTT12=
EXTT13=
EXTT14=
EXTT15=
EXTT16=
PLAYORDER=
